<?xml version="1.0" encoding="UTF-8" standalone="no"?>
<!-- Created with Inkscape (http://www.inkscape.org/) -->

<svg
   width="213.5746mm"
   height="154.60663mm"
   viewBox="0 0 213.5746 154.60663"
   version="1.1"
   id="svg5"
   sodipodi:docname="Display OLED 0.96 128x64_layerd_P00.svg"
   inkscape:version="1.3.2 (091e20e, 2023-11-25, custom)"
   xml:space="preserve"
   xmlns:inkscape="http://www.inkscape.org/namespaces/inkscape"
   xmlns:sodipodi="http://sodipodi.sourceforge.net/DTD/sodipodi-0.dtd"
   xmlns="http://www.w3.org/2000/svg"
   xmlns:svg="http://www.w3.org/2000/svg"><sodipodi:namedview
     id="namedview7"
     pagecolor="#ffffff"
     bordercolor="#666666"
     borderopacity="1.0"
     inkscape:pageshadow="2"
     inkscape:pageopacity="0.0"
     inkscape:pagecheckerboard="0"
     inkscape:document-units="mm"
     showgrid="false"
     inkscape:zoom="0.9058367"
     inkscape:cx="247.83717"
     inkscape:cy="289.78733"
     inkscape:window-width="1920"
     inkscape:window-height="1027"
     inkscape:window-x="-8"
     inkscape:window-y="-8"
     inkscape:window-maximized="1"
     inkscape:current-layer="layer1"
     inkscape:snap-global="false"
     fit-margin-top="0"
     fit-margin-left="0"
     fit-margin-right="0"
     fit-margin-bottom="0"
     inkscape:showpageshadow="2"
     inkscape:deskcolor="#d1d1d1" /><defs
     id="defs2" /><g
     inkscape:label="Layer 1"
     inkscape:groupmode="layer"
     id="layer1"
     transform="translate(-188.92715,-495.7088)"><g
       id="g327"
       transform="translate(0.00609886,158.76723)"
       style="stroke:#ff0000"><rect
         style="opacity:0.99;fill:none;stroke:#ff0000;stroke-width:0.0997778;stroke-dasharray:none"
         id="rect141"
         width="148.90022"
         height="37.065224"
         x="221.25824"
         y="375.05804"
         ry="1.1226081" /><ellipse
         style="fill:none;stroke:#ff0000;stroke-width:0.14267;stroke-linecap:square"
         id="ellipse144"
         cx="-405.19394"
         cy="228.04437"
         rx="1.178665"
         ry="1.1786648"
         transform="rotate(-90)" /><ellipse
         style="fill:none;stroke:#ff0000;stroke-width:0.14267;stroke-linecap:square"
         id="ellipse145"
         cx="-405.19394"
         cy="251.28609"
         rx="1.178665"
         ry="1.1786648"
         transform="rotate(-90)" /><ellipse
         style="fill:none;stroke:#ff0000;stroke-width:0.14267;stroke-linecap:square"
         id="ellipse146"
         cx="-381.97678"
         cy="228.06363"
         rx="1.178665"
         ry="1.1786648"
         transform="rotate(-90)" /><ellipse
         style="fill:none;stroke:#ff0000;stroke-width:0.14267;stroke-linecap:square"
         id="ellipse147"
         cx="-381.9574"
         cy="251.28609"
         rx="1.178665"
         ry="1.1786648"
         transform="rotate(-90)" /><ellipse
         style="fill:none;stroke:#ff0000;stroke-width:0.14267;stroke-linecap:square"
         id="ellipse158"
         cx="-405.19394"
         cy="255.98689"
         rx="1.178665"
         ry="1.1786648"
         transform="rotate(-90)" /><ellipse
         style="fill:none;stroke:#ff0000;stroke-width:0.14267;stroke-linecap:square"
         id="ellipse159"
         cx="-405.19394"
         cy="279.22861"
         rx="1.178665"
         ry="1.1786648"
         transform="rotate(-90)" /><ellipse
         style="fill:none;stroke:#ff0000;stroke-width:0.14267;stroke-linecap:square"
         id="ellipse160"
         cx="-381.97678"
         cy="256.00613"
         rx="1.178665"
         ry="1.1786648"
         transform="rotate(-90)" /><ellipse
         style="fill:none;stroke:#ff0000;stroke-width:0.14267;stroke-linecap:square"
         id="ellipse161"
         cx="-381.9574"
         cy="279.22861"
         rx="1.178665"
         ry="1.1786648"
         transform="rotate(-90)" /><ellipse
         style="fill:none;stroke:#ff0000;stroke-width:0.14267;stroke-linecap:square"
         id="ellipse167"
         cx="-405.19394"
         cy="284.03271"
         rx="1.178665"
         ry="1.1786648"
         transform="rotate(-90)" /><ellipse
         style="fill:none;stroke:#ff0000;stroke-width:0.14267;stroke-linecap:square"
         id="ellipse168"
         cx="-405.19394"
         cy="307.27444"
         rx="1.178665"
         ry="1.1786648"
         transform="rotate(-90)" /><ellipse
         style="fill:none;stroke:#ff0000;stroke-width:0.14267;stroke-linecap:square"
         id="ellipse169"
         cx="-381.97678"
         cy="284.05197"
         rx="1.178665"
         ry="1.1786648"
         transform="rotate(-90)" /><ellipse
         style="fill:none;stroke:#ff0000;stroke-width:0.14267;stroke-linecap:square"
         id="ellipse170"
         cx="-381.9574"
         cy="307.27444"
         rx="1.178665"
         ry="1.1786648"
         transform="rotate(-90)" /><ellipse
         style="fill:none;stroke:#ff0000;stroke-width:0.14267;stroke-linecap:square"
         id="ellipse176"
         cx="-405.19394"
         cy="312.07852"
         rx="1.178665"
         ry="1.1786648"
         transform="rotate(-90)" /><ellipse
         style="fill:none;stroke:#ff0000;stroke-width:0.14267;stroke-linecap:square"
         id="ellipse177"
         cx="-405.19394"
         cy="335.32022"
         rx="1.178665"
         ry="1.1786648"
         transform="rotate(-90)" /><ellipse
         style="fill:none;stroke:#ff0000;stroke-width:0.14267;stroke-linecap:square"
         id="ellipse178"
         cx="-381.97678"
         cy="312.09778"
         rx="1.178665"
         ry="1.1786648"
         transform="rotate(-90)" /><ellipse
         style="fill:none;stroke:#ff0000;stroke-width:0.14267;stroke-linecap:square"
         id="ellipse179"
         cx="-381.9574"
         cy="335.32022"
         rx="1.178665"
         ry="1.1786648"
         transform="rotate(-90)" /><ellipse
         style="fill:none;stroke:#ff0000;stroke-width:0.14267;stroke-linecap:square"
         id="ellipse185"
         cx="-405.19394"
         cy="340.12436"
         rx="1.178665"
         ry="1.1786648"
         transform="rotate(-90)" /><ellipse
         style="fill:none;stroke:#ff0000;stroke-width:0.14267;stroke-linecap:square"
         id="ellipse186"
         cx="-405.19394"
         cy="363.36606"
         rx="1.178665"
         ry="1.1786648"
         transform="rotate(-90)" /><ellipse
         style="fill:none;stroke:#ff0000;stroke-width:0.14267;stroke-linecap:square"
         id="ellipse187"
         cx="-381.97678"
         cy="340.14362"
         rx="1.178665"
         ry="1.1786648"
         transform="rotate(-90)" /><ellipse
         style="fill:none;stroke:#ff0000;stroke-width:0.14267;stroke-linecap:square"
         id="ellipse188"
         cx="-381.9574"
         cy="363.36606"
         rx="1.178665"
         ry="1.1786648"
         transform="rotate(-90)" /><rect
         style="fill:none;stroke:#ff0000;stroke-width:0.170366"
         id="rect192"
         width="14.829634"
         height="25.829634"
         x="230.22672"
         y="380.65836"
         ry="0" /><rect
         style="fill:none;stroke:#ff0000;stroke-width:0.170366"
         id="rect195"
         width="14.829634"
         height="25.829634"
         x="258.16928"
         y="380.65836"
         ry="0" /><rect
         style="fill:none;stroke:#ff0000;stroke-width:0.170366"
         id="rect198"
         width="14.829634"
         height="25.829634"
         x="286.21512"
         y="380.65836"
         ry="0" /><rect
         style="fill:none;stroke:#ff0000;stroke-width:0.170366"
         id="rect201"
         width="14.829634"
         height="25.829634"
         x="314.26096"
         y="380.65836"
         ry="0" /><rect
         style="fill:none;stroke:#ff0000;stroke-width:0.170366"
         id="rect204"
         width="14.829634"
         height="25.829634"
         x="342.30679"
         y="380.65836"
         ry="0" /></g><g
       id="g325"
       transform="translate(-229.74981,146.3179)"
       style="stroke:#ff0000;stroke-width:0.1;stroke-dasharray:none"><path
         id="rect271"
         style="fill:none;stroke:#ff0000;stroke-width:0.1;stroke-linecap:square;stroke-dasharray:none"
         d="m 464.4326,430.64564 c -0.17347,0 -0.33984,0.0276 -0.4961,0.078 -0.4565,-0.0275 -0.92109,0.13944 -1.26194,0.49867 l -6.53603,6.88847 c -0.68978,0.18058 -1.19631,0.80391 -1.19631,1.55185 v 9.98233 c 0,0.73281 0.48605,1.34707 1.15445,1.54151 l 6.84351,6.49263 c 0.23548,0.59396 0.81117,1.01337 1.49087,1.01337 h 9.98233 c 0.36661,0 0.70226,-0.12294 0.97204,-0.32814 0.32786,-0.0573 0.64166,-0.21178 0.88935,-0.47284 l 4.55941,-4.80591 h 5.31027 l 4.84156,4.59352 c 0.23548,0.59396 0.81117,1.01337 1.49087,1.01337 h 9.98234 c 0.36661,0 0.70225,-0.12294 0.97203,-0.32814 0.32786,-0.0573 0.64166,-0.21178 0.88935,-0.47284 l 4.55941,-4.80591 h 5.21932 l 4.84157,4.59352 c 0.23548,0.59396 0.81116,1.01337 1.49086,1.01337 h 9.98234 c 0.36661,0 0.70225,-0.12294 0.97203,-0.32814 0.32786,-0.0573 0.64166,-0.21178 0.88935,-0.47284 l 4.55942,-4.80591 h 5.29218 l 4.84156,4.59352 c 0.23548,0.59396 0.81117,1.01337 1.49087,1.01337 h 9.98233 c 0.36661,0 0.70226,-0.12294 0.97204,-0.32814 0.32786,-0.0573 0.64166,-0.21178 0.88935,-0.47284 l 4.55941,-4.80591 h 5.31027 l 4.84157,4.59352 c 0.23548,0.59396 0.81116,1.01337 1.49086,1.01337 h 9.98234 c 0.36661,0 0.70225,-0.12294 0.97203,-0.32814 0.32786,-0.0573 0.64166,-0.21178 0.88935,-0.47284 l 6.30298,-6.64404 c 0.75873,-0.12922 1.33428,-0.7826 1.33428,-1.57923 v -9.98234 c 0,-0.5311 -0.25621,-0.99874 -0.65112,-1.29088 -0.0702,-0.11109 -0.15333,-0.21633 -0.25321,-0.31109 l -7.24194,-6.8709 c -0.14753,-0.13997 -0.31472,-0.24485 -0.49144,-0.31832 -0.2484,-0.15708 -0.54251,-0.24908 -0.85938,-0.24908 h -9.98234 c -0.17347,0 -0.33983,0.0276 -0.49609,0.078 -0.4565,-0.0275 -0.92109,0.13944 -1.26194,0.49867 l -4.77284,5.03019 h -4.86998 l -5.31182,-5.03949 c -0.14753,-0.13997 -0.31473,-0.24485 -0.49145,-0.31832 -0.24838,-0.15708 -0.54251,-0.24908 -0.85937,-0.24908 h -9.98234 c -0.17347,0 -0.33984,0.0276 -0.49609,0.078 -0.4565,-0.0275 -0.92109,0.13944 -1.26194,0.49867 l -4.77284,5.03019 h -4.8519 l -5.31182,-5.03949 c -0.14753,-0.13997 -0.31472,-0.24485 -0.49144,-0.31832 -0.2484,-0.15708 -0.54251,-0.24908 -0.85938,-0.24908 h -9.98234 c -0.17347,0 -0.33983,0.0276 -0.49609,0.078 -0.4565,-0.0275 -0.92109,0.13944 -1.26194,0.49867 l -4.77284,5.03019 h -4.77903 l -5.31182,-5.03949 c -0.14753,-0.13997 -0.31473,-0.24485 -0.49145,-0.31832 -0.24839,-0.15708 -0.5425,-0.24908 -0.85937,-0.24908 h -9.98234 c -0.17347,0 -0.33983,0.0276 -0.49609,0.078 -0.4565,-0.0275 -0.92109,0.13944 -1.26194,0.49867 l -4.77284,5.03019 h -4.86999 l -5.31182,-5.03949 c -0.14753,-0.13997 -0.31472,-0.24485 -0.49144,-0.31832 -0.2484,-0.15708 -0.54251,-0.24908 -0.85938,-0.24908 z" /><g
         id="g276"
         transform="rotate(-90,415.96276,132.4223)"
         style="stroke:#ff0000;stroke-width:0.1;stroke-dasharray:none"><ellipse
           style="fill:none;stroke:#ff0000;stroke-width:0.1;stroke-linecap:square;stroke-dasharray:none"
           id="ellipse273"
           cx="92.112633"
           cy="174.26254"
           rx="1.178665"
           ry="1.1786648" /><ellipse
           style="fill:none;stroke:#ff0000;stroke-width:0.1;stroke-linecap:square;stroke-dasharray:none"
           id="ellipse274"
           cx="92.112633"
           cy="197.50426"
           rx="1.178665"
           ry="1.1786648" /><ellipse
           style="fill:none;stroke:#ff0000;stroke-width:0.1;stroke-linecap:square;stroke-dasharray:none"
           id="ellipse275"
           cx="115.3298"
           cy="174.2818"
           rx="1.178665"
           ry="1.1786648" /><ellipse
           style="fill:none;stroke:#ff0000;stroke-width:0.1;stroke-linecap:square;stroke-dasharray:none"
           id="ellipse276"
           cx="115.34917"
           cy="197.50426"
           rx="1.178665"
           ry="1.1786648" /></g><g
         id="g285"
         transform="rotate(-90,429.93402,118.45106)"
         style="stroke:#ff0000;stroke-width:0.1;stroke-dasharray:none"><ellipse
           style="fill:none;stroke:#ff0000;stroke-width:0.1;stroke-linecap:square;stroke-dasharray:none"
           id="ellipse282"
           cx="92.112633"
           cy="174.26254"
           rx="1.178665"
           ry="1.1786648" /><ellipse
           style="fill:none;stroke:#ff0000;stroke-width:0.1;stroke-linecap:square;stroke-dasharray:none"
           id="ellipse283"
           cx="92.112633"
           cy="197.50426"
           rx="1.178665"
           ry="1.1786648" /><ellipse
           style="fill:none;stroke:#ff0000;stroke-width:0.1;stroke-linecap:square;stroke-dasharray:none"
           id="ellipse284"
           cx="115.3298"
           cy="174.2818"
           rx="1.178665"
           ry="1.1786648" /><ellipse
           style="fill:none;stroke:#ff0000;stroke-width:0.1;stroke-linecap:square;stroke-dasharray:none"
           id="ellipse285"
           cx="115.34917"
           cy="197.50426"
           rx="1.178665"
           ry="1.1786648" /></g><g
         id="g294"
         transform="rotate(-90,443.95694,104.42816)"
         style="stroke:#ff0000;stroke-width:0.1;stroke-dasharray:none"><ellipse
           style="fill:none;stroke:#ff0000;stroke-width:0.1;stroke-linecap:square;stroke-dasharray:none"
           id="ellipse291"
           cx="92.112633"
           cy="174.26254"
           rx="1.178665"
           ry="1.1786648" /><ellipse
           style="fill:none;stroke:#ff0000;stroke-width:0.1;stroke-linecap:square;stroke-dasharray:none"
           id="ellipse292"
           cx="92.112633"
           cy="197.50426"
           rx="1.178665"
           ry="1.1786648" /><ellipse
           style="fill:none;stroke:#ff0000;stroke-width:0.1;stroke-linecap:square;stroke-dasharray:none"
           id="ellipse293"
           cx="115.3298"
           cy="174.2818"
           rx="1.178665"
           ry="1.1786648" /><ellipse
           style="fill:none;stroke:#ff0000;stroke-width:0.1;stroke-linecap:square;stroke-dasharray:none"
           id="ellipse294"
           cx="115.34917"
           cy="197.50426"
           rx="1.178665"
           ry="1.1786648" /></g><g
         id="g303"
         transform="rotate(-90,457.97983,90.40527)"
         style="stroke:#ff0000;stroke-width:0.1;stroke-dasharray:none"><ellipse
           style="fill:none;stroke:#ff0000;stroke-width:0.1;stroke-linecap:square;stroke-dasharray:none"
           id="ellipse300"
           cx="92.112633"
           cy="174.26254"
           rx="1.178665"
           ry="1.1786648" /><ellipse
           style="fill:none;stroke:#ff0000;stroke-width:0.1;stroke-linecap:square;stroke-dasharray:none"
           id="ellipse301"
           cx="92.112633"
           cy="197.50426"
           rx="1.178665"
           ry="1.1786648" /><ellipse
           style="fill:none;stroke:#ff0000;stroke-width:0.1;stroke-linecap:square;stroke-dasharray:none"
           id="ellipse302"
           cx="115.3298"
           cy="174.2818"
           rx="1.178665"
           ry="1.1786648" /><ellipse
           style="fill:none;stroke:#ff0000;stroke-width:0.1;stroke-linecap:square;stroke-dasharray:none"
           id="ellipse303"
           cx="115.34917"
           cy="197.50426"
           rx="1.178665"
           ry="1.1786648" /></g><g
         id="g312"
         transform="rotate(-90,472.00275,76.38235)"
         style="stroke:#ff0000;stroke-width:0.1;stroke-dasharray:none"><ellipse
           style="fill:none;stroke:#ff0000;stroke-width:0.1;stroke-linecap:square;stroke-dasharray:none"
           id="ellipse309"
           cx="92.112633"
           cy="174.26254"
           rx="1.178665"
           ry="1.1786648" /><ellipse
           style="fill:none;stroke:#ff0000;stroke-width:0.1;stroke-linecap:square;stroke-dasharray:none"
           id="ellipse310"
           cx="92.112633"
           cy="197.50426"
           rx="1.178665"
           ry="1.1786648" /><ellipse
           style="fill:none;stroke:#ff0000;stroke-width:0.1;stroke-linecap:square;stroke-dasharray:none"
           id="ellipse311"
           cx="115.3298"
           cy="174.2818"
           rx="1.178665"
           ry="1.1786648" /><ellipse
           style="fill:none;stroke:#ff0000;stroke-width:0.1;stroke-linecap:square;stroke-dasharray:none"
           id="ellipse312"
           cx="115.34917"
           cy="197.50426"
           rx="1.178665"
           ry="1.1786648" /></g></g><path
       style="fill:none;stroke:#ff0000;stroke-width:0.20733;stroke-opacity:1"
       d="m 370.35348,572.39862 v 9.25861 h -2.33246 v 9.32988 h 2.33246 v 9.32988 h -2.33246 v 11.66236 l 34.33912,-19.826 c -6.69303,-11.59271 -18.74669,-18.97629 -32.00666,-19.75473 z"
       id="path325"
       inkscape:connector-curvature="0" /><path
       style="fill:none;stroke:#ff0000;stroke-width:0.20733;stroke-opacity:1"
       d="m 223.4079,609.64688 h 144.61312 m 2.33246,-37.31952 -149.27805,0.0648"
       id="path326"
       inkscape:connector-curvature="0"
       sodipodi:nodetypes="cccc" /><path
       inkscape:connector-curvature="0"
       id="path327"
       d="m 221.07543,572.46342 v 9.2586 h 2.33247 v 9.32988 h -2.33247 v 9.32988 h 2.33247 v 11.66236 l -34.33914,-19.826 c 6.69303,-11.59271 18.74669,-18.97629 32.00667,-19.75472 z"
       style="fill:none;stroke:#ff0000;stroke-width:0.20733;stroke-opacity:1" /><g
       id="g411"
       transform="translate(0,62.441672)"
       style="stroke:#ff0000"><path
         id="rect116-9"
         style="fill:none;stroke:#ff0000;stroke-width:0.100804;stroke-linecap:square;stroke-dasharray:none"
         d="m 335.3092,437.21389 a 2.9224663,2.9224663 0 0 0 -2.1978,0.99788 h -18.8929 a 2.9224663,2.9224663 0 0 0 -2.16679,-0.96118 2.9224663,2.9224663 0 0 0 -2.16111,0.96118 h -0.4346 a 2.9224663,2.9224663 0 0 0 -2.16679,-0.96118 2.9224663,2.9224663 0 0 0 -2.16111,0.96118 h -18.85208 a 2.9224663,2.9224663 0 0 0 -2.16679,-0.96118 2.9224663,2.9224663 0 0 0 -2.16111,0.96118 h -0.50746 a 2.9224663,2.9224663 0 0 0 -2.16731,-0.96118 2.9224663,2.9224663 0 0 0 -2.16111,0.96118 h -18.86913 a 2.9224663,2.9224663 0 0 0 -2.16731,-0.96118 2.9224663,2.9224663 0 0 0 -2.16111,0.96118 h -0.43408 a 2.9224663,2.9224663 0 0 0 -2.16731,-0.96118 2.9224663,2.9224663 0 0 0 -2.16111,0.96118 h -18.91823 a 2.9224663,2.9224663 0 0 0 -2.16731,-0.96118 2.9224663,2.9224663 0 0 0 -2.9223,2.9223 2.9224663,2.9224663 0 0 0 0.16692,0.95394 v 21.37596 a 2.9224663,2.9224663 0 0 0 -0.16692,0.95343 2.9224663,2.9224663 0 0 0 2.9223,2.92282 2.9224663,2.9224663 0 0 0 2.09135,-0.89142 h 19.06395 a 2.9224663,2.9224663 0 0 0 2.09135,0.89142 2.9224663,2.9224663 0 0 0 2.09134,-0.89142 h 0.57981 a 2.9224663,2.9224663 0 0 0 2.09135,0.89142 2.9224663,2.9224663 0 0 0 2.09134,-0.89142 H 277.182 a 2.9224663,2.9224663 0 0 0 2.09135,0.89142 2.9224663,2.9224663 0 0 0 2.09134,-0.89142 h 0.65319 a 2.9224663,2.9224663 0 0 0 2.09135,0.89142 2.9224663,2.9224663 0 0 0 2.09134,-0.89142 h 18.99729 a 2.9224663,2.9224663 0 0 0 2.09135,0.89142 2.9224663,2.9224663 0 0 0 2.09134,-0.89142 h 0.57981 a 2.9224663,2.9224663 0 0 0 2.09135,0.89142 2.9224663,2.9224663 0 0 0 2.09134,-0.89142 h 19.1115 a 2.9224663,2.9224663 0 0 0 2.05465,0.85473 2.9224663,2.9224663 0 0 0 2.05517,-0.85473 h 0.72554 a 2.9224663,2.9224663 0 0 0 2.05466,0.85473 2.9224663,2.9224663 0 0 0 2.05517,-0.85473 h 19.1673 a 2.9224663,2.9224663 0 0 0 2.09135,0.89142 2.9224663,2.9224663 0 0 0 2.42052,-1.29191 c 0.33356,-0.28976 0.55449,-0.70374 0.55449,-1.18236 v -24.11015 c 0,-0.44093 -0.17929,-0.83751 -0.46819,-1.12397 a 2.9224663,2.9224663 0 0 0 0,-5.1e-4 2.9224663,2.9224663 0 0 0 -2.50682,-1.41955 2.9224663,2.9224663 0 0 0 -2.16111,0.96118 h -18.9544 a 2.9224663,2.9224663 0 0 0 -2.19831,-0.99788 2.9224663,2.9224663 0 0 0 -2.1978,0.99788 H 337.507 a 2.9224663,2.9224663 0 0 0 -2.1978,-0.99788 z" /><rect
         style="opacity:0.99;fill:none;stroke:#ff0000;stroke-width:0.0997854;stroke-dasharray:none"
         id="rect5-4"
         width="148.92252"
         height="37.065216"
         x="221.41106"
         y="433.31702"
         ry="1.1226078" /></g><rect
       style="opacity:0.99;fill:none;stroke:#ff0000;stroke-width:0.0997778;stroke-dasharray:none"
       id="rect411"
       width="148.90022"
       height="37.065224"
       x="221.26434"
       y="613.20032"
       ry="1.1226081" /><ellipse
       style="fill:none;stroke:#ff0000;stroke-width:0.14267;stroke-linecap:square"
       id="ellipse411"
       cx="-643.33624"
       cy="228.05048"
       rx="1.178665"
       ry="1.1786648"
       transform="rotate(-90)" /><ellipse
       style="fill:none;stroke:#ff0000;stroke-width:0.14267;stroke-linecap:square"
       id="ellipse413"
       cx="-620.11908"
       cy="228.06973"
       rx="1.178665"
       ry="1.1786648"
       transform="rotate(-90)" /><ellipse
       style="fill:none;stroke:#ff0000;stroke-width:0.14267;stroke-linecap:square"
       id="ellipse419"
       cx="-643.33624"
       cy="284.03882"
       rx="1.178665"
       ry="1.1786648"
       transform="rotate(-90)" /><ellipse
       style="fill:none;stroke:#ff0000;stroke-width:0.14267;stroke-linecap:square"
       id="ellipse421"
       cx="-620.11908"
       cy="284.05807"
       rx="1.178665"
       ry="1.1786648"
       transform="rotate(-90)" /><ellipse
       style="fill:none;stroke:#ff0000;stroke-width:0.14267;stroke-linecap:square"
       id="ellipse428"
       cx="-643.33624"
       cy="363.37216"
       rx="1.178665"
       ry="1.1786648"
       transform="rotate(-90)" /><ellipse
       style="fill:none;stroke:#ff0000;stroke-width:0.14267;stroke-linecap:square"
       id="ellipse430"
       cx="-620.09967"
       cy="363.37216"
       rx="1.178665"
       ry="1.1786648"
       transform="rotate(-90)" /><rect
       style="fill:none;stroke:#ff0000;stroke-width:0.170366"
       id="rect430"
       width="14.829634"
       height="25.829634"
       x="230.23282"
       y="618.80066"
       ry="0" /><rect
       style="fill:none;stroke:#ff0000;stroke-width:0.170366"
       id="rect431"
       width="14.829634"
       height="25.829634"
       x="258.17538"
       y="618.80066"
       ry="0" /><rect
       style="fill:none;stroke:#ff0000;stroke-width:0.170366"
       id="rect432"
       width="14.829634"
       height="25.829634"
       x="286.22122"
       y="618.80066"
       ry="0" /><rect
       style="fill:none;stroke:#ff0000;stroke-width:0.170366"
       id="rect433"
       width="14.829634"
       height="25.829634"
       x="314.26706"
       y="618.80066"
       ry="0" /><rect
       style="fill:none;stroke:#ff0000;stroke-width:0.170366"
       id="rect434"
       width="14.829634"
       height="25.829634"
       x="342.3129"
       y="618.80066"
       ry="0" /></g></svg>
